<svg version="1" xmlns="http://www.w3.org/2000/svg" width="1050.667" height="1050.667" viewBox="0 0 788.000000 788.000000"><path d="M112 1.8c-9.9 6.5-23 18.7-32.3 29.7-15 17.9-29.7 47.9-34.8 71-.7 3.3-1.3 6.2-1.4 6.5-.3 1.3-1.9 9.7-2 11-.1.8-.6 4.4-1.1 8-1.7 12.3-1 51 1.1 65.5.3 1.6.7 4.7 1 6.7 1 7.6 1.7 11.4 3 17.3.8 3.3 1.6 7.2 1.9 8.6C49.6 239 64 284.2 70 297.5c.5 1.1 3 6.9 5.6 13 7.2 17 8.8 19.8 15.6 25.9 19.5 17.6 40.2 27.9 92.8 46.1 99.7 34.5 143.4 52.9 186 78.2 74.8 44.5 121.2 100.1 147.2 176.3 3.4 10 9.9 33.3 11.2 40.2.2 1.3 1.1 6.1 2 10.8.9 4.7 1.9 10.3 2.1 12.5.3 2.2.7 5.1 1 6.5.8 4.4 1.3 8.3 2 15 .3 3.6.8 8.1 1 10 .2 1.9.7 7.3 1 12 .3 4.7.8 9.4 1 10.5.2 1.1.4 2.4.4 2.8.1.4 4.7-1.6 10.4-4.4 61-31.2 111.1-80.9 142.8-141.4 5.2-9.9 14.3-30.4 16.5-37 .2-.6 2-5.7 3.9-11.5 3-8.9 5.6-17.7 7-24 3.6-15.2 7-35.4 8.2-48.6 1.5-15.6.7-59.4-1.2-69.4-.3-1.4-.7-5-1-8-.3-3-1-6.9-1.5-8.5-.5-1.7-1.1-4.6-1.4-6.5-1.3-9.1-1.9-11.6-2.7-13.3-.5-.9-.8-1.7-.5-1.7.3 0 .1-1.2-.4-2.8-.4-1.5-1.6-5.4-2.5-8.7-1.8-6.3-7.1-22.6-8.5-26-.5-1.1-1.8-4.2-2.9-6.9-1.2-2.7-2.1-5.4-2.1-6.2 0-.7 1.7-5 3.9-9.6 6.2-13.5 16-38.3 21.3-53.8 7.3-21.6 15.6-54.8 17.4-69.6.3-2.3.7-5.2.9-6.3 1.9-10.2 2.6-44.2 1.2-60.1-.6-7-2-15.5-4.2-27-.2-.8-1-4.2-1.9-7.5-.9-3.3-1.8-6.7-2.1-7.5-2.5-10.2-16.3-39.8-20.9-44.9-.9-1-1.6-2.1-1.6-2.5 0-.5-3.2-4.8-7-9.6-8.2-10.2-22-23.6-30.9-29.9l-6.2-4.3.6 7.1c.3 3.9.8 7.9 1 8.9 2.3 12.2 2.4 78.1.1 82.1-.2.3-.7 3-1 6-1.4 11.5-6.7 32.8-10.2 41.1-7.8 18.2-14.7 29.1-24.8 39.4-8.4 8.6-16.1 14.4-24.9 18.7l-6.4 3.2-9.4-7c-10.7-7.9-24.5-17.3-25.4-17.3-.4 0-2.1-1.1-3.9-2.5-1.8-1.4-3.5-2.5-3.9-2.5-.3 0-3.7-1.8-7.7-4.1-8.8-4.9-31.2-15-44-19.6-19.6-7.2-51.3-15-68.3-16.8-1.8-.1-5.7-.6-8.7-.9-12.8-1.5-47.5-2.2-56.5-1.1-2.2.2-6.5.7-9.5 1-3 .2-7.5.7-9.9 1-5.7.6-33.3 5.5-34.1 6-.4.2-2 .6-3.7.9-3.4.6-18.2 5.2-29.8 9.2-17.9 6.1-44.7 18.8-59.7 28.2-6.6 4.1-30 20.2-30.8 21.1-1.5 1.8-10 8.1-10.9 8.1-2.1 0-15.9-5.9-22.1-9.6-5.5-3.1-14.8-10.1-18.5-13.9-13.8-14-24.2-32.8-30.6-55.4-6.5-23.4-8.4-39.3-8.3-72.1 0-12.4.3-26.1.7-30.5 1.1-12.1 1.6-16.4 2.3-22.8.3-3.1.4-5.7.2-5.6-.1 0-1.4.8-2.8 1.7z"/><path d="M74.5 472.6c.7 16.8 1.4 25.3 3.1 36.9.8 5.2.8 5.3 3.4 17.5 1.2 5.8 2.4 11.3 2.5 12.2 1.5 7.6 8 28 13.2 41.3 3.5 9 17 36.9 22 45.5 18.9 32.7 49.5 67.7 79.8 91.5 41.4 32.4 88.4 54.2 138 63.9 4.4.9 9.1 1.8 10.5 2.1 1.4.3 4.8.8 7.5 1.1 2.8.3 6.1.8 7.5 1 14.6 2.4 70 2.4 79-.1.8-.2 3.8-.6 6.5-1 2.8-.3 5.9-.8 7-1 1.1-.3 3.6-.7 5.5-1 3.2-.4 5.1-.8 10.5-1.9 3.3-.7 18.6-4.6 24.3-6.2 4.5-1.3 5.1-1.8 4.7-3.7-4.5-21.1-14.2-54.4-19.6-67.2-.7-1.7-1.3-3.2-1.4-3.5 0-.3-1.1-2.7-2.3-5.4-1.2-2.7-2.2-5-2.2-5.3 0-.7-13-26.6-15.3-30.3-8.1-13.6-20.2-30.2-28.8-39.5-8.2-8.9-9.7-10.4-17.9-17.4-21.7-18.6-43-29.6-81-41.8-18.5-6-27.8-8.7-61-17.8-30.1-8.4-83.4-24.9-91.5-28.4-1.1-.5-5.8-2.4-10.5-4.1-32.5-12.4-67.2-31-89.8-48l-4.3-3.3.6 13.9z"/></svg>