<svg xmlns="http://www.w3.org/2000/svg" width="489" height="543" viewBox="55.5 28.7 488.9 542.7">
  <path d="M280.6 423c-50.5-21.4-141-31.6-200.4-78v1C80 470.6 181 571.4 305.2 571.4c23.8 0 46.7-3.6 68-10.4-9.7-48.6-34-113-92.7-138zM492 28.7c12 96.7-17.6 130.7-45.2 142-38.7-31.2-87.8-50-141.4-50-55 0-105.5 20-144.6 52.7-29.4-8.2-66-39-52.8-144.7 0 0-102.3 54.6-21.2 227.3 11 11 24.8 20 42.3 26.7 112 41.6 263 71.3 271 268 77.6-35.7 131-114 131-204.6 0-31-6.2-61-18-88 82-174-21-229-21-229z" fill="#E9168C"/>
</svg>
