<svg style="position: absolute; width: 0; height: 0; overflow: hidden;" version="1.1" xmlns="http://www.w3.org/2000/svg" xmlns:xlink="http://www.w3.org/1999/xlink">
<defs>
<symbol id="icon-facebook" viewBox="0 0 32 32">
<title>facebook</title>
<path d="M30.234 0h-28.468c-0.976 0-1.766 0.79-1.766 1.766v28.468c0 0.976 0.79 1.766 1.766 1.766h15.326v-12.392h-4.172v-4.828h4.172v-3.566c0-4.132 2.524-6.38 6.212-6.38 1.766 0 3.284 0.128 3.726 0.188v4.32h-2.56c-2 0-2.39 0.96-2.39 2.36v3.080h4.78l-0.62 4.84h-4.16v12.378h8.154c0.976 0 1.766-0.79 1.766-1.766v-28.468c0-0.976-0.79-1.766-1.766-1.766z"></path>
</symbol>
<symbol id="icon-instagram" viewBox="0 0 32 32">
<title>instagram</title>
<path d="M16 0c-4.346 0-4.89 0.020-6.596 0.096-1.704 0.080-2.864 0.348-3.884 0.744-1.052 0.408-1.946 0.956-2.834 1.846-0.89 0.888-1.44 1.78-1.846 2.834-0.396 1.020-0.666 2.18-0.744 3.884-0.080 1.706-0.096 2.25-0.096 6.596s0.020 4.89 0.096 6.596c0.080 1.704 0.348 2.866 0.744 3.884 0.408 1.052 0.956 1.946 1.846 2.834 0.888 0.89 1.78 1.44 2.834 1.846 1.020 0.396 2.18 0.666 3.884 0.744 1.706 0.080 2.25 0.096 6.596 0.096s4.89-0.020 6.596-0.096c1.704-0.080 2.866-0.348 3.884-0.744 1.052-0.408 1.946-0.956 2.834-1.846 0.89-0.888 1.44-1.78 1.846-2.834 0.396-1.020 0.666-2.18 0.744-3.884 0.080-1.706 0.096-2.25 0.096-6.596s-0.020-4.89-0.096-6.596c-0.080-1.704-0.348-2.866-0.744-3.884-0.408-1.052-0.956-1.946-1.846-2.834-0.888-0.89-1.78-1.44-2.834-1.846-1.020-0.396-2.18-0.666-3.884-0.744-1.706-0.080-2.25-0.096-6.596-0.096zM16 2.88c4.272 0 4.78 0.020 6.466 0.096 1.56 0.072 2.406 0.332 2.97 0.552 0.748 0.29 1.28 0.636 1.84 1.196s0.906 1.092 1.196 1.84c0.22 0.564 0.48 1.41 0.552 2.97 0.076 1.688 0.094 2.194 0.094 6.466s-0.020 4.78-0.1 6.466c-0.080 1.56-0.34 2.406-0.56 2.97-0.3 0.748-0.64 1.28-1.2 1.84s-1.1 0.906-1.84 1.196c-0.56 0.22-1.42 0.48-2.98 0.552-1.7 0.076-2.2 0.094-6.48 0.094s-4.78-0.020-6.48-0.1c-1.56-0.080-2.42-0.34-2.98-0.56-0.76-0.3-1.28-0.64-1.84-1.2s-0.92-1.1-1.2-1.84c-0.22-0.56-0.48-1.42-0.56-2.98-0.060-1.68-0.080-2.2-0.080-6.46s0.020-4.78 0.080-6.48c0.080-1.56 0.34-2.42 0.56-2.98 0.28-0.76 0.64-1.28 1.2-1.84s1.080-0.92 1.84-1.2c0.56-0.22 1.4-0.48 2.96-0.56 1.7-0.060 2.2-0.080 6.48-0.080zM16 7.784c-4.54 0-8.216 3.68-8.216 8.216 0 4.54 3.68 8.216 8.216 8.216 4.54 0 8.216-3.68 8.216-8.216 0-4.54-3.68-8.216-8.216-8.216zM16 21.334c-2.946 0-5.334-2.388-5.334-5.334s2.388-5.334 5.334-5.334c2.946 0 5.334 2.388 5.334 5.334s-2.388 5.334-5.334 5.334zM26.46 7.46c0 1.060-0.86 1.92-1.92 1.92s-1.92-0.86-1.92-1.92 0.86-1.92 1.92-1.92 1.92 0.86 1.92 1.92z"></path>
</symbol>
</defs>
</svg>
